{"title":"Lexington.Hard.As.Steele.DVDRip.SS.x264.Iou1","uid":9119596,"size":1538864555,"categoryP":"porn","categoryS":"movies","magnet":"?xt=urn:btih:99fbffdec3711308f2fce2838fb89d82bd0d5acc&amp;dn=Lexington.Hard.As.Steele.DVDRip.SS.x264.Iou1&amp;tr=udp%3A%2F%2Ftracker.openbittorrent.com%3A80&amp;tr=udp%3A%2F%2Fopen.demonii.com%3A1337&amp;tr=udp%3A%2F%2Ftracker.coppersurfer.tk%3A6969&amp;tr=udp%3A%2F%2Fexodus.desync.com%3A6969","seeders":2,"leechers":5,"uploader":"jaybee211","files":-1,"time":1383100993,"description":"Genre                                    : XXX\nFiles                                    : 6\nFormat                                   : MPEG-4\nFormat profile                           : Base Media / Version 2\nCodec ID                                 : mp42\nFile size                                : 1.43 GiB\nDuration                                 : 2h 50mn 15s\nOverall bit rate mode                    : Variable\nOverall bit rate                         : 1 204 Kbps\n\nVideo\nID                                       : 1\nFormat                                   : AVC\nFormat/Info                              : Advanced Video Codec\nFormat profile                           : &lt;a class=&quot;__cf_email__&quot; href=&quot;/cdn-cgi/l/email-protection&quot; data-cfemail=&quot;430b2a242b030f706d73&quot;&gt;[email&amp;#160;protected]&lt;/a&gt;&lt;script cf-hash='f9e31' type=&quot;text/javascript&quot;&gt;\n/* &lt;![CDATA[ */!function(){try{var t=&quot;currentScript&quot;in document?document.currentScript:function(){for(var t=document.getElementsByTagName(&quot;script&quot;),e=t.length;e--;)if(t[e].getAttribute(&quot;cf-hash&quot;))return t[e]}();if(t&amp;&amp;t.previousSibling){var e,r,n,i,c=t.previousSibling,a=c.getAttribute(&quot;data-cfemail&quot;);if(a){for(e=&quot;&quot;,r=parseInt(a.substr(0,2),16),n=2;a.length-n;n+=2)i=parseInt(a.substr(n,2),16)^r,e+=String.fromCharCode(i);e=document.createTextNode(e),c.parentNode.replaceChild(e,c)}}}catch(u){}}();/* ]]&gt; */&lt;/script&gt;\nFormat settings, CABAC                   : Yes\nFormat settings, ReFrames                : 3 frames\nCodec ID                                 : avc1\nCodec ID/Info                            : Advanced Video Coding\nDuration                                 : 2h 50mn 15s\nBit rate mode                            : Variable\nBit rate                                 : 1 136 Kbps\nWidth                                    : 640 pixels\nHeight                                   : 480 pixels\nDisplay aspect ratio                     : 4:3\nFrame rate mode                          : Variable\nFrame rate                               : 29.970 fps\nMinimum frame rate                       : 15.978 fps\nMaximum frame rate                       : 30.000 fps\nColor space                              : YUV\nChroma subsampling                       : 4:2:0\nBit depth                                : 8 bits\nScan type                                : Progressive\nBits/(Pixel*Frame)                       : 0.123\nStream size                              : 1.34 GiB (94%)\nWriting library                          : x264 core 65\n\nAudio\nID                                       : 2\nFormat                                   : AAC\nFormat/Info                              : Advanced Audio Codec\nFormat profile                           : LC\nCodec ID                                 : 40\nDuration                                 : 2h 50mn 15s\nBit rate mode                            : Variable\nBit rate                                 : 64.0 Kbps\nMaximum bit rate                         : 86.6 Kbps\nChannel(s)                               : 2 channels\nChannel positions                        : Front: L R\nSampling rate                            : 22.05 KHz\nCompression mode                         : Lossy\nDelay relative to video                  : 67ms\nStream size                              : 90 MiB (5%)\n\nScreens. &lt;a href=&quot; http://bayimg.com/JabAMaAFK&quot; rel=&quot;nofollow&quot; target=&quot;_NEW&quot;&gt; http://bayimg.com/JabAMaAFK&lt;/a&gt;\n\n         &lt;a href=&quot; http://bayimg.com/JABAOaaFk&quot; rel=&quot;nofollow&quot; target=&quot;_NEW&quot;&gt; http://bayimg.com/JABAOaaFk&lt;/a&gt;\n\n         &lt;a href=&quot; http://bayimg.com/JabAPAAFK&quot; rel=&quot;nofollow&quot; target=&quot;_NEW&quot;&gt; http://bayimg.com/JabAPAAFK&lt;/a&gt;\n\n         &lt;a href=&quot; http://bayimg.com/KabAaaAfk&quot; rel=&quot;nofollow&quot; target=&quot;_NEW&quot;&gt; http://bayimg.com/KabAaaAfk&lt;/a&gt;\n\n         &lt;a href=&quot; http://bayimg.com/kAbaBAAfK&quot; rel=&quot;nofollow&quot; target=&quot;_NEW&quot;&gt; http://bayimg.com/kAbaBAAfK&lt;/a&gt;\n\n         &lt;a href=&quot; http://bayimg.com/kAbACAaFK&quot; rel=&quot;nofollow&quot; target=&quot;_NEW&quot;&gt; http://bayimg.com/kAbACAaFK&lt;/a&gt;\n\nCovers. &lt;a href=&quot; http://bayimg.com/kaBaEAAFK&quot; rel=&quot;nofollow&quot; target=&quot;_NEW&quot;&gt; http://bayimg.com/kaBaEAAFK&lt;/a&gt;\n\n        &lt;a href=&quot; http://bayimg.com/KaBaFaAFK&quot; rel=&quot;nofollow&quot; target=&quot;_NEW&quot;&gt; http://bayimg.com/KaBaFaAFK&lt;/a&gt;\n\nEnjoy.","torrent":{"xt":"urn:btih:99fbffdec3711308f2fce2838fb89d82bd0d5acc","amp;dn":"Lexington.Hard.As.Steele.DVDRip.SS.x264.Iou1","amp;tr":["udp%3A%2F%2Ftracker.openbittorrent.com%3A80","udp%3A%2F%2Fopen.demonii.com%3A1337","udp%3A%2F%2Ftracker.coppersurfer.tk%3A6969","udp%3A%2F%2Fexodus.desync.com%3A6969"],"infoHash":"99fbffdec3711308f2fce2838fb89d82bd0d5acc","infoHashBuffer":{"type":"Buffer","data":[153,251,255,222,195,113,19,8,242,252,226,131,143,184,157,130,189,13,90,204]},"announce":[],"urlList":[]}}